<svg width="33" height="32" viewBox="0 0 33 32" fill="none" xmlns="http://www.w3.org/2000/svg">
<g id="icon-park-solid:database-forbid">
<g id="Mask group">
<mask id="mask0_383_400" style="mask-type:luminance" maskUnits="userSpaceOnUse" x="1" y="3" width="30" height="26">
<g id="Group">
<g id="Group_2">
<path id="Vector" d="M22.9165 8V14C21.9804 13.9991 21.0546 14.1958 20.1996 14.5772C19.3447 14.9586 18.5799 15.5161 17.9552 16.2133C16.8549 17.4354 16.2472 19.0223 16.2498 20.6667C16.2507 21.0533 16.2827 21.4307 16.3458 21.7987C16.5138 22.772 16.8958 23.6959 17.4641 24.5037C18.0325 25.3116 18.7731 25.9831 19.6325 26.47C17.8578 27.0067 15.5018 27.3333 12.9165 27.3333C7.39384 27.3333 2.9165 25.8407 2.9165 24V8" stroke="white" stroke-width="2" stroke-linecap="round" stroke-linejoin="round"/>
<path id="Vector_2" d="M29.5832 20.6667C29.5832 24.3487 26.5985 27.3334 22.9165 27.3334C21.7232 27.3334 20.6018 27.02 19.6325 26.47C18.6059 25.8881 17.752 25.0445 17.1578 24.025C16.5635 23.0055 16.2502 21.8467 16.2498 20.6667C16.2498 18.9547 16.8952 17.3934 17.9552 16.2134C18.5799 15.5162 19.3447 14.9586 20.1996 14.5772C21.0546 14.1958 21.9804 13.9991 22.9165 14C26.5985 14 29.5832 16.9847 29.5832 20.6667ZM22.9165 8.00002C22.9165 9.84069 18.4392 11.3334 12.9165 11.3334C7.39384 11.3334 2.9165 9.84069 2.9165 8.00002C2.9165 6.15935 7.39384 4.66669 12.9165 4.66669C18.4392 4.66669 22.9165 6.15935 22.9165 8.00002Z" fill="white" stroke="white" stroke-width="2" stroke-linecap="round" stroke-linejoin="round"/>
<path id="Vector_3" d="M2.9165 18.6667C2.9165 20.5074 7.39384 22 12.9165 22C14.1212 22 15.2765 21.9294 16.3458 21.7987M2.9165 13.3334C2.9165 15.174 7.39384 16.6667 12.9165 16.6667C14.7538 16.6667 16.4758 16.5014 17.9552 16.2134" stroke="white" stroke-width="2" stroke-linecap="round" stroke-linejoin="round"/>
<path id="Vector_4" d="M24.9165 18.6667L20.9165 22.6667" stroke="black" stroke-width="2" stroke-linecap="round" stroke-linejoin="round"/>
</g>
</g>
</mask>
<g mask="url(#mask0_383_400)">
<path id="Vector_5" d="M0.25 0H32.25V32H0.25V0Z" fill="#7A7A7A"/>
</g>
</g>
</g>
</svg>
