<svg width="27" height="28" viewBox="0 0 27 28" fill="none" xmlns="http://www.w3.org/2000/svg">
<path d="M21.4168 22C19.9368 22 18.7502 23.1867 18.7502 24.6667C18.7502 25.3739 19.0311 26.0522 19.5312 26.5523C20.0313 27.0524 20.7096 27.3333 21.4168 27.3333C22.1241 27.3333 22.8023 27.0524 23.3024 26.5523C23.8025 26.0522 24.0835 25.3739 24.0835 24.6667C24.0835 23.9594 23.8025 23.2811 23.3024 22.781C22.8023 22.2809 22.1241 22 21.4168 22ZM0.0834961 0.666656V3.33332H2.75016L7.55016 13.4533L5.73683 16.72C5.53683 17.0933 5.41683 17.5333 5.41683 18C5.41683 18.7072 5.69778 19.3855 6.19788 19.8856C6.69797 20.3857 7.37625 20.6667 8.0835 20.6667H24.0835V18H8.6435C8.55509 18 8.47031 17.9649 8.40779 17.9024C8.34528 17.8398 8.31016 17.7551 8.31016 17.6667C8.31016 17.6 8.32349 17.5467 8.35016 17.5067L9.55016 15.3333H19.4835C20.4835 15.3333 21.3635 14.7733 21.8168 13.96L26.5902 5.33332C26.6835 5.11999 26.7502 4.89332 26.7502 4.66666C26.7502 4.31303 26.6097 3.9739 26.3596 3.72385C26.1096 3.4738 25.7705 3.33332 25.4168 3.33332H5.69683L4.4435 0.666656M8.0835 22C6.6035 22 5.41683 23.1867 5.41683 24.6667C5.41683 25.3739 5.69778 26.0522 6.19788 26.5523C6.69797 27.0524 7.37625 27.3333 8.0835 27.3333C8.79074 27.3333 9.46902 27.0524 9.96911 26.5523C10.4692 26.0522 10.7502 25.3739 10.7502 24.6667C10.7502 23.9594 10.4692 23.2811 9.96911 22.781C9.46902 22.2809 8.79074 22 8.0835 22Z" fill="#7A7A7A"/>
</svg>
