<svg width="28" height="28" viewBox="0 0 28 28" fill="none" xmlns="http://www.w3.org/2000/svg">
<path fill-rule="evenodd" clip-rule="evenodd" d="M14.6928 1.05734C14.4427 0.807382 14.1037 0.666962 13.7501 0.666962C13.3966 0.666962 13.0575 0.807382 12.8074 1.05734L3.47411 10.3907L0.807442 13.0573C0.680095 13.1803 0.578518 13.3275 0.50864 13.4901C0.438761 13.6528 0.401979 13.8278 0.400441 14.0048C0.398903 14.1818 0.432638 14.3574 0.499679 14.5213C0.566721 14.6851 0.665725 14.834 0.790915 14.9592C0.916105 15.0844 1.06497 15.1834 1.22884 15.2504C1.3927 15.3175 1.56827 15.3512 1.74531 15.3497C1.92235 15.3481 2.09731 15.3114 2.25998 15.2415C2.42265 15.1716 2.56978 15.07 2.69277 14.9427L3.08344 14.552V23.3333C3.08344 24.3942 3.50487 25.4116 4.25501 26.1618C5.00516 26.9119 6.02257 27.3333 7.08344 27.3333H20.4168C21.4776 27.3333 22.4951 26.9119 23.2452 26.1618C23.9953 25.4116 24.4168 24.3942 24.4168 23.3333V14.552L24.8074 14.9427C25.0589 15.1856 25.3957 15.3199 25.7453 15.3169C26.0949 15.3139 26.4293 15.1736 26.6765 14.9264C26.9237 14.6792 27.064 14.3448 27.067 13.9952C27.07 13.6456 26.9357 13.3088 26.6928 13.0573L14.6928 1.05734Z" fill="#CC0400"/>
</svg>
