<svg width="28" height="28" viewBox="0 0 28 28" fill="none" xmlns="http://www.w3.org/2000/svg">
<path d="M19.5832 11.3333C19.5832 12.7478 19.0213 14.1044 18.0211 15.1046C17.0209 16.1048 15.6643 16.6667 14.2498 16.6667C12.8353 16.6667 11.4788 16.1048 10.4786 15.1046C9.47841 14.1044 8.9165 12.7478 8.9165 11.3333C8.9165 9.91885 9.47841 8.56229 10.4786 7.5621C11.4788 6.5619 12.8353 6 14.2498 6C15.6643 6 17.0209 6.5619 18.0211 7.5621C19.0213 8.56229 19.5832 9.91885 19.5832 11.3333Z" fill="#7A7A7A"/>
<path fill-rule="evenodd" clip-rule="evenodd" d="M13.7058 27.3227C6.5945 27.0373 0.916504 21.1813 0.916504 14C0.916504 6.63599 6.88584 0.666656 14.2498 0.666656C21.6138 0.666656 27.5832 6.63599 27.5832 14C27.5832 21.364 21.6138 27.3333 14.2498 27.3333H14.0672C13.9463 27.3333 13.8258 27.3298 13.7058 27.3227ZM5.69384 22.4133C5.59415 22.127 5.56021 21.822 5.59456 21.5208C5.6289 21.2196 5.73064 20.93 5.89222 20.6735C6.0538 20.417 6.27108 20.2002 6.52792 20.0392C6.78476 19.8781 7.07457 19.777 7.37584 19.7433C12.5732 19.168 15.9585 19.22 21.1305 19.7553C21.4322 19.7867 21.7227 19.8866 21.98 20.0472C22.2372 20.2079 22.4544 20.4252 22.615 20.6825C22.7756 20.9398 22.8754 21.2303 22.9067 21.532C22.938 21.8337 22.9001 22.1385 22.7958 22.4233C25.0126 20.1807 26.254 17.1533 26.2498 14C26.2498 7.37266 20.8772 1.99999 14.2498 1.99999C7.6225 1.99999 2.24984 7.37266 2.24984 14C2.24984 17.2773 3.56384 20.248 5.69384 22.4133Z" fill="#7A7A7A"/>
</svg>
